<svg width="56" height="28" viewBox="0 0 56 28" fill="none" xmlns="http://www.w3.org/2000/svg">
<path d="M52.988 0.0947418H28.9026C27.5711 0.0947418 26.494 1.17186 26.494 2.50329V9.72894C26.494 11.0604 25.4169 12.1375 24.0855 12.1375H2.40856C1.07712 12.1375 0 13.2146 0 14.546V24.1802C0 25.5117 1.07712 26.5888 2.40856 26.5888H26.494C27.8255 26.5888 28.9026 25.5117 28.9026 24.1802V16.9546C28.9026 15.6231 29.9797 14.546 31.3111 14.546H52.988C54.3195 14.546 55.3966 13.4689 55.3966 12.1375V2.50329C55.3966 1.17186 54.3195 0.0947418 52.988 0.0947418Z" fill="#6E29F5"/>
<path d="M125.319 22.6743C125.06 22.5646 119.016 19.9565 116.194 16.4061H107.751C104.929 19.9565 98.885 22.5646 98.6257 22.6743L98.521 22.7191L97.3591 19.9964L97.4639 19.9516C97.6085 19.8867 100.959 18.4306 103.528 16.4061H98.2318V13.8479H103.847V4.58273H99.8724V2.08442H103.847V0H106.958V2.08442H116.962V0H120.073V2.08442H123.978V4.58273H120.073V13.8479H125.618V16.4061H120.432C122.557 18.0716 125.289 19.4429 126.481 19.9516L126.586 19.9964L125.424 22.7191L125.319 22.6743ZM116.962 13.8479V12.3818H106.958V13.8479H116.962ZM116.962 10.0281V8.56207H106.958V10.0281H116.962ZM116.962 6.20838V4.58772H106.958V6.20838H116.962Z" fill="black"/>
<path d="M99.0297 26.6736V24.1453H110.489V22.0559H104.281V19.5925H110.489V17.3585H113.536V19.5925H119.664V22.0559H113.536V24.1453H124.91V26.6736H99.0297Z" fill="black"/>
<path d="M69.494 26.6735C68.8308 26.6735 68.2972 26.135 68.2972 25.4767V16.7202C67.8584 17.5031 67.4046 18.271 66.9408 19.014L66.881 19.1088L64.2779 17.4333L64.3378 17.3385C67.6988 11.9929 69.2097 7.25555 69.8231 4.82207H66.497V1.86H76.8443V4.82207H72.9896C72.7453 5.94905 72.1718 8.1681 71.0149 11.0454H74.9992C75.6624 11.0454 76.196 11.5839 76.196 12.2422V25.4767C76.196 26.14 75.6575 26.6735 74.9992 26.6735H69.499H69.494ZM73.229 23.7115V14.1421H71.4089V23.7115H73.229Z" fill="black"/>
<path d="M77.3579 12.9254V9.79375H83.7358V6.48262H78.5048V3.52056H83.7358V0.00497437H86.9073V3.52056H92.248V6.48262H86.9073V9.79375H93.2802V12.9254H77.3579Z" fill="black"/>
<path d="M77.3579 26.6735V23.5419H83.7358V19.797H78.3951V16.8349H83.7358V13.7531H86.9073V16.8349H92.248V19.797H86.9073V23.5419H93.2802V26.6735H77.3579Z" fill="black"/>
<path d="M172.488 2.29384H162.161V5.27086H172.488V2.29384Z" fill="black"/>
<path d="M172.104 25.736L172.184 25.6563C176.168 21.6221 177.584 14.167 177.584 9.01085V8.06339H174.173V4.95172H177.584V0.00497437H180.696V4.95172H186.211C186.874 4.95172 187.408 5.49028 187.408 6.14851V22.7042C187.408 25.0579 185.493 26.9777 183.134 26.9777H180.497L179.494 24.0157H182.985C183.708 24.0157 184.296 23.4272 184.296 22.7042V8.0584H180.691V9.00587C180.691 15.0297 179.035 23.138 174.393 27.8354L174.313 27.9152L172.099 25.7311L172.104 25.736Z" fill="black"/>
<path d="M162.515 23.8162C161.851 23.8162 161.318 23.2776 161.318 22.6194V21.2281C161.318 21.0237 161.368 20.8292 161.472 20.6447C162.41 18.9492 163.871 15.5533 164.764 13.0002H160.889V10.0132H173.715V13.0002H168.05C167.347 15.2192 166.04 18.4655 164.888 20.8342H170.424L168.962 16.8399H172.219L173.645 20.7245C173.695 20.8591 173.72 20.9938 173.72 21.1384V22.6194C173.72 22.9385 173.595 23.2427 173.371 23.4671C173.146 23.6915 172.842 23.8162 172.523 23.8162H162.525H162.515Z" fill="black"/>
<path d="M130.77 2.47839L132.849 0.114723L137.202 3.8946L135.123 6.25826L130.77 2.47839Z" fill="black"/>
<path d="M129.418 9.27018L131.463 6.91648L136.295 11.0454L134.25 13.3991L129.418 9.27018Z" fill="black"/>
<path d="M129.423 26.3494L129.478 26.2497C129.493 26.2198 131.154 23.3176 133.657 15.5883L133.692 15.4835L136.764 16.441L136.729 16.5507C134.101 24.6739 132.36 27.6759 132.286 27.7956L132.231 27.8903L129.418 26.3494H129.423Z" fill="black"/>
<path d="M135.657 25.6314L135.746 25.5616C139.107 23.0283 139.676 20.1909 139.676 14.7854V14.6707H142.638V14.7854C142.638 20.8143 141.825 24.6939 137.532 27.9302L137.442 28L135.662 25.6364L135.657 25.6314Z" fill="black"/>
<path d="M147.954 14.6757H144.992V26.9977H147.954V14.6757Z" fill="black"/>
<path d="M154.95 26.9778C152.596 26.9778 150.676 25.0629 150.676 22.7042V14.6707H153.638V22.7042C153.638 23.4273 154.227 24.0157 154.95 24.0157H158.545V26.9778H154.95Z" fill="black"/>
<path d="M139.98 13.4241C139.317 13.4241 138.783 12.8855 138.783 12.2273V11.0554C138.783 10.7363 138.908 10.4371 139.132 10.2127C139.322 10.0232 139.516 9.82371 139.711 9.61926C140.923 8.34268 142.015 7.02122 142.803 5.87927H137.407V2.94713H145.57V0.00999451H148.821V2.94713H156.985V5.87927H146.373C145.705 7.16583 144.523 8.79646 143.022 10.5019H151.963C151.25 9.32505 150.627 8.16316 150.153 7.13591L150.078 6.97633H153.464L153.494 7.04116C153.978 8.02852 155.015 9.64917 155.439 10.3024C155.563 10.4969 155.628 10.7213 155.628 10.9507V12.2372C155.628 12.9005 155.09 13.434 154.431 13.434H139.97L139.98 13.4241Z" fill="black"/>
</svg>
